<svg width="100" height="100" xmlns="http://www.w3.org/2000/svg">
 <g id="Layer_1">
  <title>Layer 1</title>
  <path stroke="#000" id="svg_2" d="m0.2,37.36408l37.43294,0l11.56706,-36.66883l11.56706,36.66883l37.43294,0l-30.28384,22.66234l11.56767,36.66883l-30.28384,-22.66291l-30.28384,22.66291l11.56767,-36.66883l-30.28384,-22.66234z" fill="#BF7E96"/>
  <path fill="#fff" stroke="#000" d="m852.47,443.14c0.305,-0.875 1.5,0 0,1.125c-1.5,-1.125 -0.305,-2 0,-1.125z" id="svg_3"/>
  <path fill="#fff" d="m906.2,499.855c0.305,-0.875 1.5,0 0,1.125c-1.5,-1.125 -0.305,-2 0,-1.125z" id="svg_4" stroke="#000"/>
  <path fill="#fff" stroke="#000" d="m863.415,462.045c0.305,-0.875 1.5,0 0,1.125c-1.5,-1.125 -0.305,-2 0,-1.125z" id="svg_5"/>
  <path fill="#fff" stroke="#000" d="m906.2,505.825c0.305,-0.875 1.5,0 0,1.125c-1.5,-1.125 -0.305,-2 0,-1.125z" id="svg_6"/>
  <path fill="#fff" stroke="#000" d="m875.355,467.02c0.305,-0.875 1.5,0 0,1.125c-1.5,-1.125 -0.305,-2 0,-1.125z" id="svg_7"/>
 </g>

</svg>