<svg width="100" height="100" xmlns="http://www.w3.org/2000/svg">
 <g id="Layer_1">
  <title>Layer 1</title>
  <path stroke="#000" id="svg_1" d="m0.935,50.9275l0,0c0,-26.78581 22.16191,-48.5 49.5,-48.5l0,0c13.12821,0 25.71873,5.1098 35.00178,14.20532c9.28305,9.09552 14.49822,21.43168 14.49822,34.29468l0,0c0,26.78581 -22.16191,48.5 -49.5,48.5l0,0c-27.33809,0 -49.5,-21.7142 -49.5,-48.5zm24.75,0l0,0c0,13.3929 11.08096,24.25 24.75,24.25c13.66905,0 24.75,-10.8571 24.75,-24.25c0,-13.3929 -11.08096,-24.25 -24.75,-24.25l0,0c-13.66904,0 -24.75,10.8571 -24.75,24.25z" fill="#5B9BA2"/>
 </g>
</svg>