<svg width="100" height="100" xmlns="http://www.w3.org/2000/svg">
 <g id="Layer_1">
  <title>Layer 1</title>
  <path stroke="#000" id="svg_1" d="m82.91348,53.88432c-3.86882,-4.05712 -8.60758,-7.34072 -13.35848,-9.63627c-5.54349,2.35446 -12.29521,3.7867 -19.66326,3.7867c-7.37275,0 -14.1342,-1.4365 -19.67049,-3.7867c-4.75089,2.29554 -9.48961,5.57915 -13.373,9.63627c-9.0064,9.41481 -10.00197,19.0734 -2.22322,21.57918c3.48463,1.12812 7.14086,0.28591 10.91544,-1.82186c-0.66456,2.13718 -1.05846,4.45514 -1.05846,6.88101c0,10.77141 7.21573,19.49663 16.11099,19.49663c5.35742,0 8.01322,-3.17837 9.28664,-8.04273c1.27348,4.86436 3.92679,8.04273 9.27227,8.04273c8.90725,0 16.12296,-8.72522 16.12296,-19.49663c0,-2.42587 -0.3866,-4.74384 -1.0632,-6.88101c3.78666,2.10777 7.43557,2.94999 10.92742,1.82186c7.79093,-2.50578 6.78318,-12.16437 -2.22561,-21.57918zm-33.02896,-9.52268c14.97035,0 27.10607,-7.03941 27.10607,-15.71984s-12.13572,-15.71979 -27.10607,-15.71979c-14.96795,0 -27.11337,7.03794 -27.11337,15.71979s12.14542,15.71984 27.11337,15.71984zm18.5178,-32.26649c7.82227,1.67051 3.11486,-2.66414 3.11486,-5.62534s4.82823,-6.58251 -3.11486,-5.10958c-8.33701,1.54994 -15.09602,2.40202 -15.09602,5.36742s6.75902,3.58488 15.09602,5.36749zm-18.46704,-2.10913c4.95386,0 2.18695,-1.45469 2.18695,-3.24712c0,-1.79381 2.77416,-3.24432 -2.18695,-3.24432s-2.36823,1.4547 -2.36823,3.24432c0,1.79662 -2.58571,3.24712 2.36823,3.24712zm-18.57339,2.10913c8.33701,-1.77844 15.09596,-2.40347 15.09596,-5.36749s-6.75895,-3.81748 -15.09596,-5.36742c-7.94311,-1.47713 -3.11732,2.14554 -3.11732,5.10958s-4.71221,7.29304 3.11732,5.62534z" fill="#E6C36A"/>
 </g>
</svg>